HIERARCHY
ROOT hip
{
	OFFSET	0.00  0.00  0.00 
	CHANNELS 6 Xposition Yposition Zposition Xrotation Zrotation Yrotation
	JOINT abdomen
	{
		OFFSET	0.000000 0.000000 0.000000
		CHANNELS 3 Xrotation Zrotation Yrotation
		JOINT chest
		{
			OFFSET	0.000000 5.018152 -1.882228
			CHANNELS 3 Xrotation Zrotation Yrotation
			JOINT neckDummy
			{
				OFFSET	0.000000 8.316447 0.784897
				CHANNELS 3 Xrotation Yrotation Zrotation
				JOINT neck
				{
					OFFSET	0.000000 2.280413 -0.392801
					CHANNELS 3 Xrotation Zrotation Yrotation
					JOINT head
					{
						OFFSET	0.000000 3.496879 0.529469
						CHANNELS 3 Xrotation Zrotation Yrotation
						JOINT figureHair
						{
							OFFSET	0.000000 4.699570 0.720622
							CHANNELS 3 Zrotation Yrotation Xrotation
							End Site
							{
								OFFSET 0.000000 -6.419331 0.000000
							}
						}
					}
				}
			}
			JOINT lCollar
			{
				OFFSET	0.599237 8.316447 0.784897
				CHANNELS 3 Yrotation Zrotation Xrotation
				JOINT lShldr
				{
					OFFSET	6.421198 0.010146 -0.332128
					CHANNELS 3 Zrotation Yrotation Xrotation
					JOINT lForeArm
					{
						OFFSET	10.552783 0.025574 0.125508
						CHANNELS 3 Yrotation Zrotation Xrotation
						JOINT lHand
						{
							OFFSET	11.035963 0.319619 0.041520
							CHANNELS 3 Zrotation Yrotation Xrotation
							End Site
							{
								OFFSET 10.353753 0.000000 0.000000
							}
						}
					}
				}
			}
			JOINT rCollar
			{
				OFFSET	-0.599237 8.316447 0.784897
				CHANNELS 3 Yrotation Zrotation Xrotation
				JOINT rShldr
				{
					OFFSET	-6.421198 0.010146 -0.332128
					CHANNELS 3 Zrotation Yrotation Xrotation
					JOINT rForeArm
					{
						OFFSET	-10.552783 0.025574 0.125508
						CHANNELS 3 Yrotation Zrotation Xrotation
						JOINT rHand
						{
							OFFSET	-11.035963 0.319619 0.041520
							CHANNELS 3 Zrotation Yrotation Xrotation
							End Site
							{
								OFFSET -10.353753 0.000000 0.000000
							}
						}
					}
				}
			}
		}
	}
	JOINT lThigh
	{
		OFFSET	4.500466 -6.400484 -1.832696
		CHANNELS 3 Xrotation Zrotation Yrotation
		JOINT lShin
		{
			OFFSET	-1.359117 -18.918689 1.179887
			CHANNELS 3 Xrotation Zrotation Yrotation
			JOINT lFoot
			{
				OFFSET	-0.652380 -17.215186 -0.312137
				CHANNELS 3 Xrotation Yrotation Zrotation
				End Site
				{
					OFFSET 0.000000 0.000000 10.353752
				}
			}
		}
	}
	JOINT rThigh
	{
		OFFSET	-4.500466 -6.400484 -1.832696
		CHANNELS 3 Xrotation Zrotation Yrotation
		JOINT rShin
		{
			OFFSET	1.359117 -18.918689 1.179887
			CHANNELS 3 Xrotation Zrotation Yrotation
			JOINT rFoot
			{
				OFFSET	0.652380 -17.215186 -0.312137
				CHANNELS 3 Xrotation Yrotation Zrotation
				End Site
				{
					OFFSET 0.000000 0.000000 10.353752
				}
			}
		}
	}
}
MOTION
Frames:     18
Frame Time: 0.066667
11.489974 40.059998 3.639996 -176.621002 -175.145996 0.527344 6.611330 -4.882720 4.100820 0.000000 0.000000 0.000000 0.000000 0.000000 0.000000 -1.738280 -4.873050 -14.571100 0.000000 0.000000 0.000000 0.000000 0.000000 0.000000 0.000000 0.000000 0.000000 63.199100 0.879548 -32.361599 -31.225100 50.343399 -9.308370 -18.305700 -16.959400 -67.448502 0.000000 0.000000 0.000000 -58.821400 10.140000 -53.079399 41.763599 -49.235199 -16.126400 7.568010 19.830000 -70.200798 -4.927492 -4.808462 -8.841682 23.292830 3.161459 -10.215283 -10.529821 2.186741 -5.267266 -11.728419 -30.574017 -11.717389 21.550554 -4.130182 8.254460 -2.461558 19.126337 31.576157 
10.789957 40.209995 4.040002 -176.835999 -171.776993 2.869700 5.185550 -13.818400 4.326170 0.000000 0.000000 0.000000 0.000000 0.000000 0.000000 -0.791016 -4.443360 -15.595700 0.000000 0.000000 0.000000 0.000000 0.000000 0.000000 0.000000 0.000000 0.000000 57.940399 -0.911124 -32.366501 -36.311798 49.429001 -2.132410 -13.363700 -10.829700 -61.881802 0.000000 0.000000 0.000000 -54.641998 4.068330 -34.689800 42.565300 -50.699699 -13.674600 11.416600 18.426800 -52.674900 0.918202 -7.011304 -12.621074 10.732275 1.806686 -9.933237 -3.176325 2.502604 -4.969769 -6.709607 -34.079720 -10.536628 14.844435 -2.683794 6.039970 -1.012174 16.670267 30.702654 
10.619949 40.059998 4.079999 -177.675995 -170.244003 3.779300 3.925780 -18.144501 4.459850 0.000000 0.000000 0.000000 0.000000 0.000000 0.000000 -2.060550 -3.300780 -16.943899 0.000000 0.000000 0.000000 0.000000 0.000000 0.000000 0.000000 0.000000 0.000000 51.784901 0.126439 -31.775801 -37.852100 49.815399 0.149613 -12.648000 -11.815500 -61.150200 0.000000 0.000000 0.000000 -50.523499 3.499060 -30.813200 46.465000 -50.837601 -11.132100 11.499400 16.180700 -44.933300 1.425872 -7.723950 -14.670826 6.811295 0.877199 -10.386566 -0.586397 3.881814 -4.970388 -5.645322 -36.545376 -11.329821 12.324682 -2.071029 7.318273 -2.165166 19.446190 32.994984 
10.780018 40.200001 4.129997 -178.192993 -169.921997 5.869140 4.208980 -20.185499 3.759770 0.000000 0.000000 0.000000 0.000000 0.000000 0.000000 -3.251950 -2.519530 -18.896500 0.000000 0.000000 0.000000 0.000000 0.000000 0.000000 0.000000 0.000000 0.000000 44.362598 1.576020 -31.295099 -39.933498 50.339802 1.829700 -11.394700 -11.976500 -61.073101 0.000000 0.000000 0.000000 -43.698299 3.913040 -30.357100 50.653000 -51.076000 -7.091630 9.446320 12.313600 -42.248199 0.488319 -7.665871 -14.833624 7.355684 1.071195 -11.906615 -0.879972 3.655514 -4.727821 -3.849212 -36.721886 -14.396485 11.254807 -1.955395 7.044060 -1.975904 20.023968 33.023502 
11.009974 40.370003 4.119996 2.373050 -10.117200 -171.807999 5.625000 -21.025400 2.750400 0.000000 0.000000 0.000000 0.000000 0.000000 0.000000 -4.423830 -2.177730 -20.683599 0.000000 0.000000 0.000000 0.000000 0.000000 0.000000 0.000000 0.000000 0.000000 36.964199 3.295650 -29.549700 -41.484901 50.525101 3.183620 -10.459900 -12.720800 -60.129799 0.000000 0.000000 0.000000 -35.735001 2.751350 -28.849800 52.315800 -50.705898 -3.853040 6.234550 11.324300 -40.814899 1.180797 -6.619194 -14.369492 7.550492 1.546645 -12.134741 -1.475419 1.219505 -5.433525 1.207983 -36.562443 -22.289862 8.236348 -1.122610 7.281419 -1.977267 22.457306 33.212650 
11.129974 40.490002 4.160003 2.646480 -10.449200 -170.410004 6.455080 -22.744101 2.945440 0.000000 0.000000 0.000000 0.000000 0.000000 0.000000 -5.527340 -1.318360 -22.861300 0.000000 0.000000 0.000000 0.000000 0.000000 0.000000 0.000000 0.000000 0.000000 30.199800 4.548440 -28.851601 -44.489201 51.677299 4.956410 -9.969420 -13.425100 -60.038399 0.000000 0.000000 0.000000 -26.348700 0.397143 -27.231701 56.133900 -51.914101 0.018020 3.082240 11.264100 -41.553398 1.785690 -6.316280 -14.460425 7.357622 1.733193 -11.800481 -1.573939 -0.160148 -5.910389 4.157738 -36.432159 -24.283895 6.296864 -0.490615 5.230030 -1.831928 23.419127 33.385025 
11.129974 40.610001 4.129997 3.076170 -10.742200 -170.098007 7.148440 -23.789101 3.462860 0.000000 0.000000 0.000000 0.000000 0.000000 0.000000 -6.826170 -1.171880 -24.355700 0.000000 0.000000 0.000000 0.000000 0.000000 0.000000 0.000000 0.000000 0.000000 22.931999 6.029130 -28.806499 -47.269501 52.514198 6.731560 -9.553820 -13.464600 -60.702000 0.000000 0.000000 0.000000 -17.108500 -1.350990 -26.357100 59.212799 -52.368599 2.535410 -0.734050 9.867130 -42.863800 2.506504 -6.275172 -14.143199 7.095958 1.773204 -11.764288 -1.610845 -0.774096 -6.065434 5.251296 -36.373371 -24.880915 5.856671 -0.482451 4.698350 -1.260080 23.953617 32.268837 
11.109992 40.730000 3.910001 3.349610 -10.908200 -170.139008 7.451170 -24.257799 3.716690 0.000000 0.000000 0.000000 0.000000 0.000000 0.000000 -8.222660 -1.191410 -25.234400 0.000000 0.000000 0.000000 0.000000 0.000000 0.000000 0.000000 0.000000 0.000000 14.400600 7.580980 -28.769899 -49.209202 52.936501 7.778610 -8.896790 -13.347900 -61.457600 0.000000 0.000000 0.000000 -7.988970 -2.773900 -24.289801 58.905102 -52.498699 2.513310 -4.379120 7.965760 -44.385700 2.809858 -6.344715 -13.827245 7.253740 1.842363 -11.901364 -1.780932 -0.935816 -6.059395 5.112717 -36.224579 -25.122265 6.873152 -0.939405 5.709322 -1.022591 23.289654 30.344481 
11.190026 40.819996 3.779999 3.349610 -10.927700 -169.992004 7.509770 -24.414101 3.775260 0.000000 0.000000 0.000000 0.000000 0.000000 0.000000 -9.570310 -1.191410 -25.703100 0.000000 0.000000 0.000000 0.000000 0.000000 0.000000 0.000000 0.000000 0.000000 7.119020 8.681870 -27.956400 -50.291801 53.192501 8.295560 -8.280740 -13.414800 -61.475899 0.000000 0.000000 0.000000 -0.626130 -4.166330 -22.438299 58.136398 -52.567799 2.621960 -7.049180 6.931630 -46.493000 2.702355 -6.510351 -13.473796 7.907547 2.105760 -12.467941 -2.274416 -0.773793 -5.991791 4.652977 -35.754940 -23.945549 7.870178 -1.368940 5.970943 -1.210397 21.618286 28.840887 
11.319966 40.939995 3.670001 3.310550 -10.878900 -169.514008 7.646480 -24.531300 3.521340 0.000000 0.000000 0.000000 0.000000 0.000000 0.000000 -11.015600 -1.074220 -26.015900 0.000000 0.000000 0.000000 0.000000 0.000000 0.000000 0.000000 0.000000 0.000000 1.286770 9.156640 -27.153000 -49.717201 52.914799 7.598590 -7.947280 -13.699900 -61.383301 0.000000 0.000000 0.000000 5.619210 -5.938030 -20.256500 57.313000 -52.418800 1.914270 -8.593340 6.773050 -48.729900 2.504730 -6.604870 -13.122279 8.523227 2.398979 -13.234324 -2.738693 -0.721389 -5.769141 4.052249 -35.137383 -23.165165 9.330064 -1.828976 6.281638 -1.298272 19.920721 26.943373 
11.530044 41.069996 3.500003 3.173830 -10.644500 -168.916000 7.773440 -24.423800 3.037110 0.000000 0.000000 0.000000 0.000000 0.000000 0.000000 -12.070300 -0.947266 -26.504101 0.000000 0.000000 0.000000 0.000000 0.000000 0.000000 0.000000 0.000000 0.000000 -4.950170 9.449670 -26.438999 -49.222301 52.963200 6.655820 -7.506760 -13.676400 -61.150002 0.000000 0.000000 0.000000 11.236000 -7.638210 -17.415800 56.138901 -52.086700 1.003730 -9.261140 6.414760 -49.664600 2.283234 -6.432577 -12.776449 8.829567 2.668530 -13.955606 -2.926975 -0.773481 -5.498170 2.887410 -34.292114 -22.404409 11.678439 -2.394042 6.226101 -1.205630 18.027807 24.691591 
11.629958 41.129997 3.390004 3.203130 -10.546800 -168.761002 7.900390 -24.511700 2.896340 0.000000 0.000000 0.000000 0.000000 0.000000 0.000000 -12.714800 -0.791016 -27.109501 0.000000 0.000000 0.000000 0.000000 0.000000 0.000000 0.000000 0.000000 0.000000 -10.199800 9.576410 -25.276501 -48.430500 53.134399 5.651800 -7.286320 -13.560400 -61.040501 0.000000 0.000000 0.000000 16.667999 -9.257890 -14.609500 55.231899 -52.103600 0.112700 -10.116600 6.472770 -49.936001 2.261440 -6.331881 -12.551348 9.095259 2.806480 -14.146236 -3.180630 -0.918878 -5.337887 1.969720 -33.901096 -22.348743 13.551844 -2.680014 6.032912 -0.880591 16.187983 22.839373 
11.690009 41.169994 3.370001 3.408200 -10.517600 -168.975006 8.183590 -24.834000 2.984180 0.000000 0.000000 0.000000 0.000000 0.000000 0.000000 -13.125000 -0.449219 -27.324200 0.000000 0.000000 0.000000 0.000000 0.000000 0.000000 0.000000 0.000000 0.000000 -14.791400 9.639900 -24.481501 -47.600399 53.136600 4.866140 -7.129590 -13.488900 -60.973099 0.000000 0.000000 0.000000 22.661501 -10.629700 -12.430600 55.010899 -52.034000 -0.462649 -10.761600 5.802340 -50.747200 2.422090 -6.318196 -12.347553 9.232642 2.857830 -14.144747 -3.294494 -0.873633 -5.298486 1.462380 -33.746635 -22.255701 14.517557 -2.735811 5.513224 -0.431286 15.277942 21.756168 
11.679966 41.209999 3.330004 3.574220 -10.449200 -169.259995 8.417970 -24.960899 3.120880 0.000000 0.000000 0.000000 0.000000 0.000000 0.000000 -13.476600 -0.214844 -27.441401 0.000000 0.000000 0.000000 0.000000 0.000000 0.000000 0.000000 0.000000 0.000000 -19.622999 9.661290 -23.427200 -46.114498 53.128101 3.403630 -6.947590 -13.364300 -60.930302 0.000000 0.000000 0.000000 27.770500 -11.998400 -9.893530 53.119099 -50.982201 -1.904640 -11.192300 5.137930 -51.579800 2.597668 -6.269128 -12.181360 9.316221 2.880780 -14.173940 -3.390614 -0.768801 -5.198497 1.170369 -33.660194 -22.512535 15.046243 -2.748548 4.914082 0.213240 14.715302 20.977907 
11.670027 41.239994 3.359999 3.632810 -10.380900 -169.335999 8.652340 -24.980499 3.037110 0.000000 0.000000 0.000000 0.000000 0.000000 0.000000 -13.828100 0.019531 -27.558599 0.000000 0.000000 0.000000 0.000000 0.000000 0.000000 0.000000 0.000000 0.000000 -24.676100 9.404800 -22.566799 -44.140400 52.940899 1.495940 -6.325030 -13.396100 -61.213799 0.000000 0.000000 0.000000 32.972500 -13.325600 -7.297860 50.306499 -49.785500 -4.197840 -11.883700 4.597040 -52.253502 2.615411 -6.218040 -12.159312 9.365025 2.859177 -14.156198 -3.426982 -0.692162 -5.167077 1.071725 -33.599396 -23.089394 15.170153 -2.835801 4.388603 0.636868 14.830729 20.588732 
11.720035 41.270000 3.390004 3.701170 -10.332000 -169.337997 8.925780 -25.097700 2.861330 0.000000 0.000000 0.000000 0.000000 0.000000 0.000000 -14.101600 0.292969 -27.636700 0.000000 0.000000 0.000000 0.000000 0.000000 0.000000 0.000000 0.000000 0.000000 -28.662500 9.454480 -21.688900 -41.947300 52.576500 -0.760181 -6.042170 -13.193600 -61.718399 0.000000 0.000000 0.000000 37.674099 -14.543100 -4.702390 47.464500 -48.938499 -6.627520 -12.505500 4.449990 -53.042301 2.634607 -6.139883 -12.058093 9.389112 2.865709 -14.272781 -3.450340 -0.674944 -5.176520 1.161471 -33.456463 -23.296709 15.054371 -2.777559 3.837687 0.906041 15.090793 20.269936 
11.760000 41.299995 3.440002 3.759770 -10.312500 -169.259995 9.189450 -25.429701 2.773440 0.000000 0.000000 0.000000 0.000000 0.000000 0.000000 -14.335900 0.664063 -27.939301 0.000000 0.000000 0.000000 0.000000 0.000000 0.000000 0.000000 0.000000 0.000000 -32.787300 9.713110 -20.507401 -39.673401 52.228699 -3.031140 -5.738850 -13.069200 -62.076401 0.000000 0.000000 0.000000 42.862000 -15.816500 -2.615120 43.545200 -47.123501 -9.501720 -12.917800 4.006170 -54.314701 2.587620 -5.956491 -11.656391 9.498448 2.847423 -14.499619 -3.541394 -0.933111 -5.253355 1.424618 -33.309814 -23.477404 14.726718 -2.659100 3.397267 1.095265 15.098022 20.194452 
11.799966 41.330002 3.450004 3.691410 -10.361300 -169.091995 9.248050 -25.888700 2.984020 0.000000 0.000000 0.000000 0.000000 0.000000 0.000000 -14.228500 1.054690 -28.437401 0.000000 0.000000 0.000000 0.000000 0.000000 0.000000 0.000000 0.000000 0.000000 -36.916401 10.121800 -18.806700 -36.104801 50.789200 -5.980120 -5.044010 -12.567000 -62.594398 0.000000 0.000000 0.000000 48.625099 -17.409901 0.220653 37.558399 -44.278301 -13.572600 -13.674900 3.833710 -55.752602 2.545744 -5.933656 -11.659247 9.517529 2.847159 -14.285081 -3.576558 -1.251921 -5.361300 1.851785 -33.215588 -23.504448 14.213359 -2.503868 3.045477 1.131071 14.850706 20.496546 
